<svg width="761" height="208" viewBox="0 0 761 208" fill="none" xmlns="http://www.w3.org/2000/svg">
<path d="M0 68.2868H68.2159L138 138.143H68.2159V208L0 138.143V68.2868ZM0 0H138V68.2868H68.2159L0 0Z" fill="black"/>
<path d="M269 148V44H332V64.9582H292.722V92.2433H332V112.806H292.722V148H269Z" fill="black"/>
<path d="M347 148V76.5699H370.722V92.6613C371.111 87.5591 373.444 83.2419 376.944 79.7097C380.444 76.5699 385.111 75 389.778 75C392.889 75 394.444 76.5699 396 76.5699V97.371H389.778C384.333 96.586 378.889 99.3333 375.389 103.651C372.278 106.79 370.722 113.07 370.722 120.919V148H347Z" fill="black"/>
<path d="M440.518 132.196C445.6 132.979 450.682 130.237 453.027 125.928C456.155 122.402 457.718 118.093 457.718 113.392C457.718 108.299 456.155 103.206 453.027 99.2886C449.9 95.7629 445.209 94.1959 440.518 94.5876C435.827 94.5876 431.137 96.1546 427.618 99.2886C424.491 103.206 422.537 108.299 422.928 113.392C422.928 118.093 424.491 122.794 427.618 125.928C430.746 129.845 435.437 132.196 440.518 132.196ZM434.264 151C424.491 151 415.5 147.082 408.855 140.031C403.382 132.196 400.646 122.794 401.037 113C401.037 106.732 402.209 100.072 404.164 94.1959C406.9 88.3196 411.591 83.6185 416.673 79.701C421.755 76.567 428.009 75 434.264 75C438.955 75.3918 444.037 76.1753 448.336 78.134C452.246 80.0928 454.982 83.6185 456.155 87.5361V76.1753H480V147.474H456.155V138.072C454.2 141.598 451.464 144.732 448.336 147.474C444.037 149.825 439.346 150.608 434.264 151Z" fill="black"/>
<path d="M498 147.219V76.1711H520.372V87.492C521.942 82.8075 525.082 81.246 528.222 78.123C532.147 76.1711 536.464 75.3904 541.174 75C552.164 75 560.406 79.6845 563.546 87.8824C566.686 84.7594 569.826 81.6364 572.966 78.5134C577.676 76.5615 582.386 75.7807 587.488 75.3904C604.758 75.3904 613 84.7594 613 103.888V148H590.628V107.791C590.628 103.888 589.451 99.9839 587.488 96.861C585.133 94.9091 582.386 93.738 579.246 93.738C575.321 93.3476 571.788 95.2995 569.826 98.4225C567.471 102.326 566.294 106.62 566.686 110.914V147.219H544.314V107.791C544.314 103.888 543.137 99.9839 541.174 96.861C539.212 94.9091 536.072 93.738 533.324 93.738C529.792 94.1283 526.259 95.6898 523.904 98.4225C521.549 102.326 520.372 106.62 520.765 110.914V147.219H498Z" fill="black"/>
<path d="M646.74 104.574H676.979C676.979 100.658 675.801 96.7423 673.837 93.6095C670.696 90.4767 667.554 90.4767 662.841 90.4767C658.522 90.4767 654.202 91.6515 650.275 93.6095C647.919 96.7423 646.74 100.658 646.74 104.574ZM698.97 107.707V118.672H646.348C646.348 122.98 647.919 126.896 651.06 129.637C654.202 131.986 658.129 133.161 662.056 132.77C669.91 132.77 673.052 131.203 676.193 126.504H698.578C697.007 133.944 692.294 140.21 686.011 143.734C678.55 147.65 670.303 150 662.056 150C649.489 150 639.672 146.867 633.388 139.035C626.32 131.986 622 122.196 622 112.015C622 101.442 625.927 91.2599 633.388 83.4279C639.672 77.1623 649.097 74.0295 662.056 74.0295C671.874 73.6379 681.691 77.1623 689.153 83.4279C695.829 90.0851 699.363 98.7003 698.97 107.707Z" fill="black"/>
<path d="M712 148V76.5699H734.344V92.6613C735.912 87.9516 738.656 83.6344 742.184 79.7097C745.712 76.5699 750.024 75 754.728 75C756.296 75 759.432 76.5699 761 76.5699V97.371H753.16C748.064 96.9785 743.36 99.7258 740.616 103.651C735.912 106.79 734.344 113.07 734.344 120.919V148H712Z" fill="black"/>
</svg>
